<mxfile host="app.diagrams.net" modified="2023-02-21T11:20:04.071Z" agent="5.0 (Windows NT 10.0; Win64; x64) AppleWebKit/537.36 (KHTML, like Gecko) Chrome/110.0.0.0 Safari/537.36 Edg/110.0.1587.50" etag="lXNofYr2ulGAuLyHb3nt" version="20.8.21" type="github">
  <diagram name="Page-1" id="e7e014a7-5840-1c2e-5031-d8a46d1fe8dd">
    <mxGraphModel dx="1035" dy="614" grid="1" gridSize="10" guides="1" tooltips="1" connect="1" arrows="1" fold="1" page="1" pageScale="1" pageWidth="1169" pageHeight="826" background="none" math="0" shadow="0">
      <root>
        <mxCell id="0" />
        <mxCell id="1" parent="0" />
        <mxCell id="2" value="Pengguna Instagram " style="swimlane;whiteSpace=wrap" parent="1" vertex="1">
          <mxGeometry x="164.5" y="150" width="345" height="640" as="geometry" />
        </mxCell>
        <mxCell id="5" value="" style="ellipse;shape=startState;fillColor=#000000;strokeColor=#ff0000;" parent="2" vertex="1">
          <mxGeometry x="100" y="40" width="30" height="30" as="geometry" />
        </mxCell>
        <mxCell id="6" value="" style="edgeStyle=elbowEdgeStyle;elbow=horizontal;verticalAlign=bottom;endArrow=open;endSize=8;strokeColor=#FF0000;endFill=1;rounded=0" parent="2" source="5" target="7" edge="1">
          <mxGeometry x="100" y="40" as="geometry">
            <mxPoint x="115" y="110" as="targetPoint" />
          </mxGeometry>
        </mxCell>
        <mxCell id="7" value="&gt; node index.js" style="" parent="2" vertex="1">
          <mxGeometry x="60" y="110" width="110" height="50" as="geometry" />
        </mxCell>
        <mxCell id="8" value="Pilih Fitur" style="" parent="2" vertex="1">
          <mxGeometry x="60" y="222" width="110" height="50" as="geometry" />
        </mxCell>
        <mxCell id="EpEf8qVlWjMgmeQ8P99i-58" style="edgeStyle=orthogonalEdgeStyle;rounded=0;orthogonalLoop=1;jettySize=auto;html=1;" edge="1" parent="2">
          <mxGeometry relative="1" as="geometry">
            <mxPoint x="425.5" y="430" as="targetPoint" />
            <mxPoint x="125.5" y="370" as="sourcePoint" />
            <Array as="points">
              <mxPoint x="126" y="430" />
            </Array>
          </mxGeometry>
        </mxCell>
        <mxCell id="10" value="Input Username&#xa;Password" style="" parent="2" vertex="1">
          <mxGeometry x="60" y="310" width="110" height="57" as="geometry" />
        </mxCell>
        <mxCell id="3" value="Sistem Bot" style="swimlane;whiteSpace=wrap" parent="1" vertex="1">
          <mxGeometry x="509.5" y="150" width="280" height="640" as="geometry" />
        </mxCell>
        <mxCell id="15" value="Menampilkan &#xa;Menu Utama" style="" parent="3" vertex="1">
          <mxGeometry x="85" y="110" width="110" height="50" as="geometry" />
        </mxCell>
        <mxCell id="16" value="Validasi Fitur Yang Dipilih" style="" parent="3" vertex="1">
          <mxGeometry x="75.5" y="213" width="134.5" height="50" as="geometry" />
        </mxCell>
        <mxCell id="18" value="Meminta Info Login" style="" parent="3" vertex="1">
          <mxGeometry x="87.75" y="322" width="110" height="50" as="geometry" />
        </mxCell>
        <mxCell id="30" value="Validasi Sistem" style="" parent="3" vertex="1">
          <mxGeometry x="87.75" y="400" width="110" height="50" as="geometry" />
        </mxCell>
        <mxCell id="EpEf8qVlWjMgmeQ8P99i-54" value="" style="endArrow=classic;html=1;rounded=0;exitX=0.476;exitY=1.02;exitDx=0;exitDy=0;exitPerimeter=0;entryX=0.48;entryY=-0.02;entryDx=0;entryDy=0;entryPerimeter=0;" edge="1" parent="3" source="16" target="18">
          <mxGeometry width="50" height="50" relative="1" as="geometry">
            <mxPoint x="-79.5" y="342" as="sourcePoint" />
            <mxPoint x="-29.5" y="292" as="targetPoint" />
          </mxGeometry>
        </mxCell>
        <mxCell id="EpEf8qVlWjMgmeQ8P99i-59" value="Bot Berjalan" style="" vertex="1" parent="3">
          <mxGeometry x="87.75" y="480" width="110" height="50" as="geometry" />
        </mxCell>
        <mxCell id="EpEf8qVlWjMgmeQ8P99i-60" value="" style="ellipse;shape=startState;fillColor=#000000;strokeColor=#ff0000;" vertex="1" parent="3">
          <mxGeometry x="125" y="600" width="30" height="30" as="geometry" />
        </mxCell>
        <mxCell id="EpEf8qVlWjMgmeQ8P99i-61" value="" style="edgeStyle=elbowEdgeStyle;elbow=horizontal;verticalAlign=bottom;endArrow=open;endSize=8;strokeColor=#FF0000;endFill=1;rounded=0" edge="1" parent="3">
          <mxGeometry x="-40.20999999999998" y="355" as="geometry">
            <mxPoint x="139.28999999999996" y="600" as="targetPoint" />
            <mxPoint x="139.28999999999996" y="535" as="sourcePoint" />
          </mxGeometry>
        </mxCell>
        <mxCell id="EpEf8qVlWjMgmeQ8P99i-62" value="" style="endArrow=classic;html=1;rounded=0;exitX=0.455;exitY=0.994;exitDx=0;exitDy=0;exitPerimeter=0;" edge="1" parent="3" source="30">
          <mxGeometry width="50" height="50" relative="1" as="geometry">
            <mxPoint x="-179.5" y="320" as="sourcePoint" />
            <mxPoint x="137.5" y="470" as="targetPoint" />
          </mxGeometry>
        </mxCell>
        <mxCell id="EpEf8qVlWjMgmeQ8P99i-43" value="" style="endArrow=classic;html=1;rounded=0;entryX=-0.036;entryY=0.46;entryDx=0;entryDy=0;entryPerimeter=0;exitX=0.995;exitY=0.486;exitDx=0;exitDy=0;exitPerimeter=0;" edge="1" parent="1" source="7" target="15">
          <mxGeometry width="50" height="50" relative="1" as="geometry">
            <mxPoint x="340" y="260" as="sourcePoint" />
            <mxPoint x="510" y="263" as="targetPoint" />
          </mxGeometry>
        </mxCell>
        <mxCell id="EpEf8qVlWjMgmeQ8P99i-51" style="edgeStyle=orthogonalEdgeStyle;rounded=0;orthogonalLoop=1;jettySize=auto;html=1;entryX=0.495;entryY=-0.08;entryDx=0;entryDy=0;entryPerimeter=0;" edge="1" parent="1" target="8">
          <mxGeometry relative="1" as="geometry">
            <mxPoint x="650" y="320" as="sourcePoint" />
            <Array as="points">
              <mxPoint x="650" y="330" />
              <mxPoint x="279" y="330" />
            </Array>
          </mxGeometry>
        </mxCell>
        <mxCell id="EpEf8qVlWjMgmeQ8P99i-52" value="" style="endArrow=classic;html=1;rounded=0;exitX=1.05;exitY=0.42;exitDx=0;exitDy=0;exitPerimeter=0;entryX=-0.015;entryY=0.6;entryDx=0;entryDy=0;entryPerimeter=0;" edge="1" parent="1" source="8" target="16">
          <mxGeometry width="50" height="50" relative="1" as="geometry">
            <mxPoint x="430" y="470" as="sourcePoint" />
            <mxPoint x="580" y="380" as="targetPoint" />
          </mxGeometry>
        </mxCell>
        <mxCell id="EpEf8qVlWjMgmeQ8P99i-53" value="" style="endArrow=classic;html=1;rounded=0;" edge="1" parent="1">
          <mxGeometry width="50" height="50" relative="1" as="geometry">
            <mxPoint x="590" y="480" as="sourcePoint" />
            <mxPoint x="340" y="480" as="targetPoint" />
          </mxGeometry>
        </mxCell>
      </root>
    </mxGraphModel>
  </diagram>
</mxfile>
